<svg width="22" height="22" viewBox="0 0 22 22" fill="none" xmlns="http://www.w3.org/2000/svg">
<g clip-path="url(#clip0_40002929_5041)">
<path d="M4.55591 0.0996094H11.8069C12.2519 0.0996094 12.6134 0.461213 12.6135 0.90625C12.6135 1.35136 12.252 1.71289 11.8069 1.71289H4.55591C3.00147 1.71289 1.73657 2.97779 1.73657 4.53223V17.2217C1.73657 18.7761 3.00147 20.041 4.55591 20.041H17.2463C18.8008 20.041 20.0657 18.7761 20.0657 17.2217V9.9707C20.0657 9.52584 20.4266 9.16447 20.8713 9.16406C21.3164 9.16415 21.678 9.52565 21.678 9.9707V17.2217C21.678 19.6654 19.6891 21.6543 17.2454 21.6543H4.55591C2.11216 21.6543 0.123291 19.6654 0.123291 17.2217V4.53223C0.123291 2.08847 2.11216 0.0996094 4.55591 0.0996094ZM7.80884 4.83203C8.23481 4.61319 8.71652 4.57293 9.18872 4.7168L9.39087 4.79004C9.82648 4.9726 10.179 5.36964 10.3577 5.88477L10.4231 6.1123L10.4241 6.11523L13.2073 16.1123C13.348 16.6196 12.967 17.1221 12.4397 17.1221C12.1274 17.1221 11.8489 16.9405 11.719 16.665L11.6731 16.542L11.0901 14.4756L11.0696 14.4023H6.19946L6.17896 14.4756L5.59595 16.542C5.49935 16.8849 5.18622 17.1221 4.82935 17.1221C4.30292 17.122 3.92114 16.6195 4.06177 16.1123L6.86353 6.04395L6.8645 6.03906C6.98567 5.51688 7.32931 5.07695 7.80786 4.83203H7.80884ZM16.3391 10.0703C16.7842 10.0703 17.1458 10.4318 17.1458 10.877V16.3154C17.1458 16.7605 16.7842 17.1221 16.3391 17.1221C15.894 17.1221 15.5325 16.7605 15.5325 16.3154V10.877C15.5325 10.4318 15.894 10.0703 16.3391 10.0703ZM8.83032 6.46777C8.7777 6.26878 8.49225 6.26479 8.4397 6.46777L6.69067 12.6631L6.65552 12.79H10.6145L10.5793 12.6631L8.83032 6.46777ZM17.925 0.0996094C18.2773 0.0996094 18.5951 0.3151 18.7278 0.642578L19.3997 2.32324L19.4153 2.36328L19.4553 2.37891L21.136 3.05078C21.4634 3.18255 21.679 3.4994 21.679 3.85254C21.6789 4.16188 21.5141 4.4436 21.2532 4.59668L21.136 4.6543L19.4553 5.3252L19.4153 5.3418L19.3997 5.38184L18.7278 7.06152C18.5961 7.38911 18.2793 7.60449 17.926 7.60449C17.5726 7.60441 17.255 7.38945 17.1243 7.06152L16.4495 5.37109L16.4338 5.33301L16.3948 5.31641L14.7024 4.60352L14.6868 4.59668C14.3702 4.45595 14.1667 4.13987 14.1731 3.79199C14.1798 3.43972 14.401 3.12603 14.7307 3.00098L16.3977 2.36914L16.4387 2.35352L16.4553 2.31348L17.1233 0.642578C17.2549 0.315193 17.5728 0.0997258 17.925 0.0996094Z" fill="#565A5B" fill-opacity="0.7" stroke="#546265" stroke-width="0.2"/>
</g>
<defs>
<clipPath id="clip0_40002929_5041">
<rect width="21.7539" height="21.7539" fill="white"/>
</clipPath>
</defs>
</svg>
