<svg width="20" height="20" viewBox="0 0 20 20" fill="none" xmlns="http://www.w3.org/2000/svg">
<path d="M8.89571 2.27148C8.93031 2.08626 9.02859 1.91897 9.17354 1.79859C9.31849 1.6782 9.50098 1.6123 9.6894 1.6123C9.87782 1.6123 10.0603 1.6782 10.2053 1.79859C10.3502 1.91897 10.4485 2.08626 10.4831 2.27148L11.3317 6.75911C11.392 7.07816 11.547 7.37163 11.7766 7.60122C12.0062 7.83082 12.2997 7.98587 12.6187 8.04614L17.1064 8.89473C17.2916 8.92933 17.4589 9.02761 17.5792 9.17256C17.6996 9.31751 17.7655 9.5 17.7655 9.68843C17.7655 9.87685 17.6996 10.0593 17.5792 10.2043C17.4589 10.3492 17.2916 10.4475 17.1064 10.4821L12.6187 11.3307C12.2997 11.391 12.0062 11.546 11.7766 11.7756C11.547 12.0052 11.392 12.2987 11.3317 12.6177L10.4831 17.1054C10.4485 17.2906 10.3502 17.4579 10.2053 17.5783C10.0603 17.6986 9.87782 17.7645 9.6894 17.7645C9.50098 17.7645 9.31849 17.6986 9.17354 17.5783C9.02859 17.4579 8.93031 17.2906 8.89571 17.1054L8.04711 12.6177C7.98684 12.2987 7.83179 12.0052 7.6022 11.7756C7.37261 11.546 7.07914 11.391 6.76009 11.3307L2.27245 10.4821C2.08723 10.4475 1.91995 10.3492 1.79956 10.2043C1.67918 10.0593 1.61328 9.87685 1.61328 9.68843C1.61328 9.5 1.67918 9.31751 1.79956 9.17256C1.91995 9.02761 2.08723 8.92933 2.27245 8.89473L6.76009 8.04614C7.07914 7.98587 7.37261 7.83082 7.6022 7.60122C7.83179 7.37163 7.98684 7.07816 8.04711 6.75911L8.89571 2.27148Z" stroke="#9810FA" stroke-width="1.61484" stroke-linecap="round" stroke-linejoin="round"/>
<path d="M16.1487 1.61426V4.84393" stroke="#9810FA" stroke-width="1.61484" stroke-linecap="round" stroke-linejoin="round"/>
<path d="M17.7631 3.22949H14.5334" stroke="#9810FA" stroke-width="1.61484" stroke-linecap="round" stroke-linejoin="round"/>
<path d="M3.22995 17.7629C4.1218 17.7629 4.84479 17.0399 4.84479 16.148C4.84479 15.2562 4.1218 14.5332 3.22995 14.5332C2.3381 14.5332 1.61511 15.2562 1.61511 16.148C1.61511 17.0399 2.3381 17.7629 3.22995 17.7629Z" stroke="#9810FA" stroke-width="1.61484" stroke-linecap="round" stroke-linejoin="round"/>
</svg>
