<svg width="66" height="66" viewBox="0 0 66 66" fill="none" xmlns="http://www.w3.org/2000/svg">
<circle cx="33" cy="33" r="33" fill="#FF0000"/>
<path d="M28.5023 12.7641C27.9872 13.3575 27.6046 14.0539 27.38 14.8069C27.1553 15.5599 27.0939 16.3522 27.1998 17.1308L29.1974 43.4893C29.7378 47.5177 35.688 47.4948 36.2016 43.4341L38.1834 17.1861C38.9787 11.7542 32.0841 8.62211 28.5023 12.7641ZM29.7812 52.159C29.7812 52.9318 30.0882 53.673 30.6347 54.2195C31.1812 54.766 31.9223 55.073 32.6952 55.073C33.468 55.073 34.2092 54.766 34.7556 54.2195C35.3021 53.673 35.6091 52.9318 35.6091 52.159C35.6091 51.3862 35.3021 50.645 34.7556 50.0985C34.2092 49.5521 33.468 49.2451 32.6952 49.2451C31.9223 49.2451 31.1812 49.5521 30.6347 50.0985C30.0882 50.645 29.7812 51.3862 29.7812 52.159Z" fill="white"/>
</svg>
