<svg width="31" height="31" viewBox="0 0 31 31" fill="none" xmlns="http://www.w3.org/2000/svg">
<path d="M11.6508 2.58839C12.5183 1.84912 12.952 1.47948 13.4055 1.26273C14.4544 0.761383 15.6738 0.761383 16.7227 1.26273C17.1762 1.47948 17.61 1.84912 18.4775 2.58839C18.8227 2.88263 18.9954 3.02974 19.1797 3.15332C19.6024 3.43659 20.077 3.63319 20.5762 3.73173C20.7939 3.77472 21.02 3.79276 21.4722 3.82885C22.6084 3.91952 23.1764 3.96485 23.6504 4.13225C24.7466 4.51944 25.6088 5.38168 25.996 6.47787C26.1634 6.95182 26.2087 7.5199 26.2994 8.65605C26.3355 9.10825 26.3535 9.33434 26.3965 9.55209C26.4951 10.0512 26.6917 10.5259 26.9749 10.9485C27.0985 11.1329 27.2456 11.3055 27.5399 11.6508C28.2791 12.5183 28.6488 12.952 28.8655 13.4055C29.3669 14.4544 29.3669 15.6738 28.8655 16.7227C28.6488 17.1762 28.2791 17.61 27.5399 18.4775C27.2456 18.8227 27.0985 18.9954 26.9749 19.1797C26.6917 19.6024 26.4951 20.077 26.3965 20.5762C26.3535 20.7939 26.3355 21.02 26.2994 21.4722C26.2087 22.6084 26.1634 23.1764 25.996 23.6504C25.6088 24.7466 24.7466 25.6088 23.6504 25.996C23.1764 26.1634 22.6084 26.2087 21.4722 26.2994C21.02 26.3355 20.7939 26.3535 20.5762 26.3965C20.077 26.4951 19.6024 26.6917 19.1797 26.9749C18.9954 27.0985 18.8227 27.2456 18.4775 27.5399C17.61 28.2791 17.1762 28.6488 16.7227 28.8655C15.6738 29.3669 14.4544 29.3669 13.4055 28.8655C12.952 28.6488 12.5183 28.2791 11.6508 27.5399C11.3055 27.2456 11.1329 27.0985 10.9485 26.9749C10.5259 26.6917 10.0512 26.4951 9.55209 26.3965C9.33434 26.3535 9.10825 26.3355 8.65605 26.2994C7.5199 26.2087 6.95182 26.1634 6.47787 25.996C5.38168 25.6088 4.51944 24.7466 4.13225 23.6504C3.96485 23.1764 3.91952 22.6084 3.82885 21.4722C3.79276 21.02 3.77472 20.7939 3.73173 20.5762C3.63319 20.077 3.43659 19.6024 3.15332 19.1797C3.02974 18.9954 2.88263 18.8227 2.58839 18.4775C1.84912 17.61 1.47948 17.1762 1.26273 16.7227C0.761383 15.6738 0.761383 14.4544 1.26273 13.4055C1.47948 12.952 1.84912 12.5183 2.58839 11.6508C2.88263 11.3055 3.02974 11.1329 3.15332 10.9485C3.43659 10.5259 3.63319 10.0512 3.73173 9.55209C3.77472 9.33434 3.79276 9.10825 3.82885 8.65605C3.91952 7.5199 3.96485 6.95182 4.13225 6.47787C4.51944 5.38168 5.38168 4.51944 6.47787 4.13225C6.95182 3.96485 7.5199 3.91952 8.65605 3.82885C9.10825 3.79276 9.33434 3.77472 9.55209 3.73173C10.0512 3.63319 10.5259 3.43659 10.9485 3.15332C11.1329 3.02974 11.3055 2.88263 11.6508 2.58839Z" stroke="black" stroke-width="1.77218"/>
<path d="M10.4492 19.678L19.68 10.4473" stroke="black" stroke-width="1.77218" stroke-linecap="round"/>
<path d="M20.45 18.9115C20.45 19.7612 19.7612 20.45 18.9115 20.45C18.0618 20.45 17.373 19.7612 17.373 18.9115C17.373 18.0618 18.0618 17.373 18.9115 17.373C19.7612 17.373 20.45 18.0618 20.45 18.9115Z" fill="black"/>
<path d="M12.7566 11.2201C12.7566 12.0698 12.0678 12.7586 11.2181 12.7586C10.3685 12.7586 9.67969 12.0698 9.67969 11.2201C9.67969 10.3704 10.3685 9.68164 11.2181 9.68164C12.0678 9.68164 12.7566 10.3704 12.7566 11.2201Z" fill="black"/>
</svg>
