<svg width="20" height="20" viewBox="0 0 20 20" fill="none" xmlns="http://www.w3.org/2000/svg">
<path d="M9.51156 0.09375C9.40218 0.144531 9.24203 0.265625 9.15609 0.363281C8.84749 0.714844 8.86703 0.292969 8.86703 6.32031V11.6992L7.55062 10.3828C6.13656 8.97266 6.07406 8.92187 5.64828 8.87891C5.20296 8.83203 4.73031 9.10547 4.52718 9.51953C4.4139 9.75781 4.40609 10.2109 4.50765 10.4492C4.60921 10.6758 9.24203 15.3164 9.51156 15.4609C9.67171 15.543 9.75765 15.5625 9.99984 15.5586C10.1873 15.5586 10.3475 15.5352 10.4491 15.4922C10.6756 15.3945 15.3553 10.7148 15.4764 10.4687C15.5975 10.2187 15.5936 9.77734 15.4725 9.51953C15.3436 9.25781 15.0428 9 14.7733 8.92187C14.5077 8.84375 14.1717 8.87109 13.9334 8.98828C13.828 9.03906 13.2967 9.54297 12.453 10.3828L11.1327 11.6992V6.32031C11.1327 0.292969 11.1522 0.714844 10.8436 0.363281C10.6209 0.109375 10.367 0 9.99984 0C9.77328 0 9.65999 0.0234375 9.51156 0.09375Z" fill="#0C1A30"/>
<path d="M0.6875 13.398C0.441406 13.4957 0.210938 13.7144 0.09375 13.9644C0.00390625 14.1519 0 14.191 0 15.1207C0 16.1559 0.0351562 16.4644 0.210938 16.984C0.699219 18.4176 1.82031 19.4566 3.35156 19.8941L3.65234 19.9801L9.80469 19.9918C14.25 19.9996 16.043 19.9918 16.2695 19.9605C17.7539 19.7457 19.1211 18.6637 19.6875 17.2535C19.9492 16.6012 19.9727 16.4488 19.9922 15.2769C20.0117 14.0504 20 13.9879 19.6953 13.6637C19.2891 13.2301 18.5977 13.2027 18.1445 13.6012C17.8164 13.8902 17.8008 13.9527 17.7695 14.9996C17.75 15.6949 17.7266 15.9684 17.6758 16.1324C17.4414 16.8902 16.8789 17.4449 16.1094 17.6832C15.8906 17.7496 15.5938 17.7535 10 17.7535C4.40625 17.7535 4.10938 17.7496 3.89062 17.6832C3.12109 17.4449 2.55859 16.8902 2.32422 16.1324C2.27344 15.9684 2.25 15.6949 2.23047 14.9996C2.19922 13.9527 2.18359 13.8902 1.85547 13.6012C1.53906 13.3238 1.08203 13.2457 0.6875 13.398Z" fill="#0C1A30"/>
</svg>
