<svg width="15" height="14" viewBox="0 0 15 14" fill="none" xmlns="http://www.w3.org/2000/svg">
<path d="M5.99972 11.9993C5.99966 12.1232 6.03413 12.2447 6.09925 12.3501C6.16436 12.4555 6.25756 12.5406 6.36839 12.596L7.70172 13.2627C7.80338 13.3135 7.91635 13.3375 8.02988 13.3323C8.14342 13.3272 8.25375 13.2931 8.35041 13.2333C8.44706 13.1735 8.52683 13.09 8.58213 12.9907C8.63744 12.8914 8.66644 12.7797 8.66639 12.666V7.99935C8.66654 7.66894 8.78936 7.35035 9.01105 7.10535L13.8264 1.77935C13.9127 1.68372 13.9694 1.56514 13.9898 1.43794C14.0101 1.31074 13.9932 1.18037 13.941 1.0626C13.8888 0.944828 13.8036 0.844697 13.6957 0.774317C13.5878 0.703936 13.4619 0.666319 13.3331 0.666016H1.33305C1.20412 0.666062 1.07797 0.703493 0.969885 0.773773C0.861796 0.844054 0.776405 0.944169 0.724055 1.06199C0.671706 1.17981 0.654643 1.31029 0.674935 1.43761C0.695228 1.56493 0.752003 1.68364 0.838386 1.77935L5.65505 7.10535C5.87674 7.35035 5.99957 7.66894 5.99972 7.99935V11.9993Z" stroke="#717182" stroke-width="1.33333" stroke-linecap="round" stroke-linejoin="round"/>
</svg>
