<svg width="22" height="22" viewBox="0 0 22 22" fill="none" xmlns="http://www.w3.org/2000/svg">
<path d="M6.44531 9.80566C7.0899 9.80587 7.61328 10.3299 7.61328 10.9727C7.61311 11.6171 7.08979 12.1404 6.44531 12.1406C5.80066 12.1406 5.27654 11.6173 5.27637 10.9727C5.27637 10.3298 5.80055 9.80566 6.44531 9.80566ZM10.9883 9.80566C11.6328 9.80593 12.1562 10.33 12.1562 10.9727C12.1561 11.6171 11.6327 12.1404 10.9883 12.1406C10.3436 12.1406 9.81951 11.6173 9.81934 10.9727C9.81934 10.3298 10.3435 9.80566 10.9883 9.80566ZM15.5303 9.80566C16.175 9.80566 16.6992 10.3298 16.6992 10.9727C16.699 11.6173 16.1749 12.1406 15.5303 12.1406C14.8858 12.1404 14.3625 11.6171 14.3623 10.9727C14.3623 10.33 14.8857 9.80592 15.5303 9.80566Z" fill="#200E32"/>
<path fill-rule="evenodd" clip-rule="evenodd" d="M10.77 0.75C4.96 0.75 0.75 5.49612 0.75 10.765C0.75 12.4475 1.24 14.1791 2.1 15.7615C2.26 16.0229 2.28 16.3524 2.17 16.6639L1.5 18.9072C1.35 19.448 1.81 19.8476 2.32 19.6874L4.34 19.0875C4.89 18.9072 5.32 19.1366 5.83 19.448C7.29 20.3083 9.11 20.75 10.75 20.75C15.71 20.75 20.75 16.9142 20.75 10.735C20.75 5.40598 16.45 0.75 10.77 0.75Z" stroke="#200E32" stroke-width="1.5" stroke-linecap="round" stroke-linejoin="round"/>
</svg>
