<svg width="30" height="37" viewBox="0 0 30 37" fill="none" xmlns="http://www.w3.org/2000/svg">
<g clip-path="url(#clip0_40004379_9010)">
<path d="M3.07841 36.096C2.51473 35.9624 1.96324 35.8062 1.4935 35.4388C0.561001 34.7092 0.188696 33.737 0.190436 32.5736C0.198265 28.0136 0.193915 23.4527 0.193915 18.8927C0.193915 13.8902 0.195655 8.8877 0.192175 3.88521C0.192175 3.0727 0.347013 2.31429 0.849799 1.65625C1.55179 0.73814 2.49821 0.347157 3.63339 0.34803C7.80704 0.350648 11.9816 0.348902 16.1561 0.348902C17.7566 0.348902 19.3563 0.342793 20.9569 0.35763C21.1161 0.359375 21.3196 0.44403 21.4266 0.560976C24.0093 3.39386 26.5824 6.2346 29.1485 9.08232C29.2581 9.20451 29.3329 9.40698 29.3338 9.5728C29.3425 17.2624 29.3312 24.9529 29.3494 32.6426C29.3538 34.423 28.1751 35.8472 26.5189 36.0602C26.498 36.0628 26.4806 36.0838 26.4615 36.0968C18.6665 36.096 10.8725 36.096 3.07841 36.096ZM18.0098 1.98353C17.8758 1.97567 17.8062 1.96869 17.7375 1.96869C13.0176 1.96782 8.29852 1.9652 3.57859 1.97044C2.45558 1.97131 1.81884 2.64593 1.81884 3.8023C1.81797 13.4119 1.81797 23.0225 1.81884 32.6321C1.81884 33.8356 2.46254 34.4753 3.6734 34.4753C11.0717 34.4762 18.4699 34.4762 25.8682 34.4753C27.0782 34.4753 27.7202 33.8347 27.7202 32.6295C27.721 25.7881 27.7202 18.9477 27.7202 12.1063C27.7202 11.9842 27.7202 11.8628 27.7202 11.725C27.5375 11.725 27.4114 11.725 27.2844 11.725C24.8374 11.725 22.3904 11.725 19.9444 11.725C18.6213 11.725 18.0098 11.1123 18.0089 9.78487C18.008 7.32988 18.0089 4.87489 18.0089 2.42077C18.0098 2.28462 18.0098 2.1476 18.0098 1.98353ZM19.6573 1.99313C19.6573 4.69423 19.6573 7.38224 19.6573 10.0746C22.3348 10.0746 24.9888 10.0746 27.6984 10.0746C27.5627 9.9184 27.4653 9.80582 27.3661 9.69498C25.1732 7.25046 22.9672 4.81729 20.7977 2.35182C20.4524 1.95909 20.1036 1.93553 19.6573 1.99313Z" fill="#FF464B"/>
<path d="M12.4111 26.3834C12.4111 24.2094 12.4111 22.1096 12.4111 19.9784C13.6089 19.8763 14.7868 19.6624 15.9446 20.1643C16.9884 20.6163 17.7052 21.6095 17.6808 22.7476C17.6686 23.3201 17.6304 23.9214 17.4468 24.4564C16.9788 25.8213 15.8367 26.3101 14.5214 26.4261C13.8264 26.4864 13.1192 26.4026 12.4111 26.3834ZM13.7751 25.2602C14.0491 25.2602 14.2814 25.2767 14.5101 25.2575C15.3322 25.186 15.9367 24.6938 16.1333 23.9153C16.2064 23.6264 16.209 23.3192 16.2542 23.0225C16.4369 21.8303 15.3852 20.6251 13.7751 21.0693C13.7751 22.4534 13.7751 23.8411 13.7751 25.2602Z" fill="#FF464B"/>
<path d="M8.87136 24.0275C8.87136 24.8191 8.87136 25.5583 8.87136 26.3202C8.41554 26.3202 7.99365 26.3202 7.55176 26.3202C7.55176 24.2108 7.55176 22.111 7.55176 19.9772C8.57038 19.903 9.57856 19.6656 10.5798 20.0322C11.3705 20.3219 11.8098 20.9206 11.835 21.7759C11.8602 22.6338 11.554 23.3424 10.7494 23.7168C10.3823 23.8879 9.95696 23.9437 9.55247 24.0205C9.3524 24.0589 9.13928 24.0275 8.87136 24.0275ZM8.93051 22.9078C9.7508 23.0282 10.1622 22.886 10.4119 22.4138C10.6041 22.0499 10.5624 21.5472 10.3171 21.2697C10.0361 20.9512 9.42547 20.856 8.93051 21.0585C8.93051 21.6668 8.93051 22.2786 8.93051 22.9078Z" fill="#FF464B"/>
<path d="M22.5403 19.9268C22.5403 20.2436 22.542 20.5324 22.5394 20.8213C22.5385 20.9007 22.5246 20.9793 22.5142 21.0849C21.7626 21.0849 21.0241 21.0849 20.2551 21.0849C20.2551 21.5815 20.2551 22.0501 20.2551 22.5589C20.9493 22.5589 21.6391 22.5589 22.3515 22.5589C22.3515 22.9639 22.3515 23.3304 22.3515 23.7345C21.6643 23.7345 20.9736 23.7345 20.2368 23.7345C20.2368 24.6116 20.2368 25.4538 20.2368 26.3195C19.7671 26.3195 19.3435 26.3195 18.8955 26.3195C18.8955 24.1979 18.8955 22.0754 18.8955 19.9276C20.0907 19.9268 21.2903 19.9268 22.5403 19.9268Z" fill="#FF464B"/>
</g>
<defs>
<clipPath id="clip0_40004379_9010">
<rect width="29.5409" height="36.358" fill="white"/>
</clipPath>
</defs>
</svg>
