<svg width="25" height="20" viewBox="0 0 25 20" fill="none" xmlns="http://www.w3.org/2000/svg">
<path d="M23.5996 10.0459C24.066 10.0461 24.4442 10.4175 24.4443 10.876C24.4443 11.3335 24.0661 11.7039 23.5996 11.7041H22.4189V15.6592C22.4189 18.054 20.4332 20 17.9932 20H16.2236C15.7559 20 15.377 19.6286 15.377 19.1699C15.377 18.7123 15.7558 18.3408 16.2236 18.3408H17.9932C19.501 18.3408 20.7285 17.1388 20.7285 15.6592V11.7041H17.8135V12.8057C17.8246 14.184 16.6966 15.3111 15.291 15.3242H9.15332C7.74892 15.3111 6.62073 14.1839 6.63184 12.8057V11.7041H3.71777V15.6641C3.71798 17.138 4.9412 18.3376 6.44434 18.3398L8.25391 18.3408C8.72037 18.3411 9.09863 18.7125 9.09863 19.1699C9.09751 19.6286 8.71973 20 8.25195 20L6.44238 19.999C4.00803 19.9968 2.02559 18.0522 2.02539 15.6641V11.7041H0.84668C0.380007 11.7041 0 11.3336 0 10.876C0.000108334 10.4174 0.380073 10.0459 0.84668 10.0459H23.5996ZM15.292 4.15918C15.9642 4.1592 16.6101 4.42375 17.0801 4.89551C17.5533 5.37154 17.8155 6.01121 17.8145 6.67676V8.06055C17.8089 8.22289 17.6763 8.35502 17.5107 8.35938H6.93262C6.76831 8.35378 6.63614 8.2217 6.63281 8.06055V6.67676C6.62081 5.29865 7.74997 4.17334 9.1543 4.15918H15.292ZM17.9941 0.000976562C20.4353 0.000976562 22.4199 1.94706 22.4199 4.34082V6.40332C22.4199 6.86089 22.042 7.2334 21.5742 7.2334C21.1077 7.23322 20.7286 6.86078 20.7285 6.40332V4.34082C20.7285 2.86229 19.5019 1.65918 17.9941 1.65918H16.2246C15.7579 1.65918 15.3789 1.28867 15.3789 0.831055C15.379 0.372427 15.758 0.000976562 16.2246 0.000976562H17.9941ZM8.25195 0C8.71853 0 9.0975 0.371506 9.09766 0.830078C9.09766 1.28769 8.71974 1.65918 8.25195 1.65918L6.44238 1.66016C4.94014 1.66234 3.71777 2.86274 3.71777 4.33691V6.40234C3.71777 6.85991 3.3377 7.23235 2.87109 7.23242C2.40442 7.23242 2.02539 6.85996 2.02539 6.40234V4.33691C2.02539 1.9486 4.00693 0.00315568 6.44141 0.000976562L8.25098 0H8.25195Z" fill="#2A2F31"/>
</svg>
