<svg width="18" height="16" viewBox="0 0 18 16" fill="none" xmlns="http://www.w3.org/2000/svg">
<path d="M14.3257 7.18784C15.8764 6.95808 17.0706 5.57867 17.0706 3.9102C17.0706 2.08196 15.6368 0.599609 13.8679 0.599609H3.8035C2.03292 0.599609 0.599976 2.08196 0.599976 3.9102C0.599976 5.57867 1.79327 6.95808 3.3448 7.18784" stroke="#4F39F6" stroke-width="1.2"/>
<path d="M8.83517 3.07031V8.83502M8.83517 8.83502L10.4822 6.91372M8.83517 8.83502L7.18811 6.91372" stroke="#4F39F6" stroke-width="1.2" stroke-linecap="round" stroke-linejoin="round"/>
<path d="M3.07117 6.36443C3.07117 4.81125 3.07117 4.03549 3.55376 3.5529C4.03634 3.07031 4.81211 3.07031 6.36528 3.07031H11.3065C12.8596 3.07031 13.6354 3.07031 14.118 3.5529C14.6006 4.03549 14.6006 4.81125 14.6006 6.36443V11.3056C14.6006 12.8588 14.6006 13.6345 14.118 14.1171C13.6354 14.5997 12.8596 14.5997 11.3065 14.5997H6.36528C4.81211 14.5997 4.03634 14.5997 3.55376 14.1171C3.07117 13.6345 3.07117 12.8588 3.07117 11.3056V6.36443Z" stroke="#4F39F6" stroke-width="1.2"/>
<path d="M3.07117 12.1289H14.6006" stroke="#4F39F6" stroke-width="1.2" stroke-linecap="round" stroke-linejoin="round"/>
</svg>
